<?xml version="1.0" encoding="UTF-8" standalone="no"?>
<svg width="95px" height="90px" viewBox="0 0 95 90" version="1.1" xmlns="http://www.w3.org/2000/svg" xmlns:xlink="http://www.w3.org/1999/xlink" xmlns:sketch="http://www.bohemiancoding.com/sketch/ns">
    <title>Slice 1</title>
    <description>Created with Sketch (http://www.bohemiancoding.com/sketch)</description>
    <defs></defs>
    <g id="Page-1" stroke="none" stroke-width="1" fill="none" fill-rule="evenodd" sketch:type="MSPage">
        <path d="M93.2153653,29.5144861 C92.1929809,28.846793 92.2642831,27.6940462 92.3259901,26.7689372 C92.4004356,25.653744 92.5127655,24.6211026 92.1673385,23.5282431 C91.814467,22.6099168 90.8766195,21.782414 89.9146186,21.5840582 C87.9514088,21.7999501 84.5623201,20.1763771 83.2024494,20.0618965 C83.1064975,20.011439 83.0214642,19.9355046 82.9534707,19.8157301 C82.7175613,16.6822375 82.4129966,13.5730638 82.0394457,10.4885397 C81.9476297,9.72886506 82.0033811,8.95231608 81.9969291,7.99908318 C81.9772424,5.11887061 81.5057544,2.11226617 83.6449864,0 C82.8168219,0.356180222 82.2162951,1.05298983 81.750101,1.87519871 C80.2856759,4.45812569 78.1029347,6.86701571 75.745991,8.82790943 L68.5787119,15.4216275 C65.3950927,18.8226275 62.5415151,22.4623494 60.8170271,26.5815 C58.8084883,27.1350434 56.7230225,28.0088678 55.3479319,29.7498993 C54.6761029,30.8391192 56.0664134,31.66778 56.4055539,32.5209251 C55.8907221,33.7294233 55.9061075,35.0226238 56.4432729,36.1902597 C55.7919578,37.731281 55.5469494,39.2754455 55.1788579,40.8885961 C55.1254226,41.1231821 54.8622165,42.133159 54.8051417,42.4008318 C54.2186768,45.1460499 54.7220936,47.8595046 54.9575067,50.5628678 C53.3403857,46.3646396 49.7780872,37.6599787 49.715553,37.4602994 C49.3787286,36.3872921 49.6548385,35.1801174 49.4817942,34.0018937 C48.6319578,31.2871155 46.9432036,28.5404085 47.7677286,25.5665601 C48.3479069,23.4880425 48.0666685,21.1183604 47.838369,19.0575444 C49.2521713,17.5764104 49.8665945,15.450744 49.167138,13.452793 C48.1816454,13.4474991 47.4403339,14.2434039 46.783394,14.945342 C46.2662461,13.0661728 45.8070003,12.4785499 45.1070474,11.8588327 C44.2155215,11.0693799 43.2086879,10.5432985 42.1346879,10.1629649 C39.9618727,9.51446211 37.7945169,10.417403 35.8139365,11.0850961 C32.9181731,12.4449667 29.7891472,13.5697551 27.4781944,16.1152939 C25.3996768,18.9283401 22.6040012,21.051525 20.2174448,23.4648817 C18.7932202,25.2203059 20.0262027,27.2063457 20.8849725,28.8386867 C21.5511768,30.011451 21.1686925,31.5642181 21.7852665,32.7672569 C23.780736,34.7805933 25.7674374,35.0217967 26.750614,33.4898743 C27.3132563,32.7196118 27.3532914,31.6709233 26.8485511,30.9244834 L26.8171186,31.747354 C26.7205049,32.5839556 26.3299143,33.5060869 25.4630382,33.7800462 C24.4348635,34.0478845 23.6305215,33.5323909 22.9972387,32.7649409 C22.9179957,31.0330083 23.9086167,29.6327717 24.9748413,28.3647172 C25.9419707,27.1573771 27.5683561,26.8801091 28.9747138,27.2892283 C31.3080003,28.2330314 33.9170659,29.2430083 36.6116611,28.8782255 C37.3992942,28.7716858 37.8808737,28.6252763 38.6165604,28.3981349 C38.9684393,28.2894445 39.3108884,28.2588392 39.627199,28.5112921 C39.7057803,28.5739917 43.2550095,32.0578743 44.4333986,33.7606904 C44.8994273,35.5235591 46.7259883,36.3527163 47.6553986,37.8262403 L50.5256851,44.7544667 L50.514601,45.0449695 C50.514601,45.0449695 48.3252424,42.4947985 48.0476435,42.2292763 C46.1036241,40.3702902 43.577772,39.7772079 41.0239615,39.2698207 C36.9157295,38.951525 32.6495077,38.966414 28.5730391,39.0855268 C25.7856352,39.0165407 22.8938422,39.164439 20.1130557,39.5151599 C19.2863801,39.6193835 16.1097091,40.0402486 15.3379578,40.2066756 C8.82513706,41.6120407 2.7763598,47.0146312 0.0509938068,52.9853235 C-0.0992206109,53.3145379 0.111873659,53.4144603 0.303115803,53.1405009 C3.40749196,48.6947828 11.8231389,46.1666146 14.7121195,46.2685222 C16.5580363,46.3335379 19.0011713,46.5292468 20.5163847,46.9302597 C28.0734273,48.9308577 34.6937803,53.2553124 40.1971204,59.2420518 C47.0422988,67.0168059 56.7231879,85.2723244 56.9779568,85.7213133 C57.1663866,86.0535055 57.3147812,86.4022412 57.3048552,86.8136765 C57.3012156,86.9652144 57.0062461,88.3379889 57.1640705,88.8610924 C58.4719947,88.4585906 59.3840345,89.5436747 60.5759892,89.2174381 C60.5961722,88.6850702 60.1908579,88.2979538 60.0480881,87.8077717 C59.9670252,84.8476543 59.8695844,82.3232911 60.3210548,79.3835222 C60.7336482,80.541232 60.9013986,81.7846368 60.9938764,83.0612939 C60.9803108,82.8746839 61.0651786,87.6080924 61.055418,88.9502616 C61.0488006,89.8887708 62.7650169,88.7012828 63.1162341,88.2802523 C63.1107748,86.7288087 63.5584402,85.162476 63.6398339,83.872915 C63.842491,76.1365416 67.5847822,69.8164519 70.2570437,63.0075037 C70.3837665,62.6845758 70.7814707,61.3076654 70.9257295,60.9576063 C71.7545557,58.9474131 73.9804753,57.271232 75.7840409,56.5281007 C75.47137,54.9812893 75.1103921,53.4324926 74.3224282,52.061207 C75.6684023,49.8180823 76.4892877,47.3610508 77.5639494,45.0269372 C80.1134587,39.6142551 83.1953358,34.2219214 83.1642341,27.838305 C84.6600918,26.3280545 85.461125,24.3873438 87.1282073,23.0451747 C88.2915419,23.0023272 88.6710483,23.3555296 89.4608321,23.8304917 C91.5237988,25.071415 90.9176472,27.7850351 92.3440225,29.4812338 C92.986735,30.073158 94.8123034,30.4306617 94.8338099,29.8670268 C94.2989605,29.9111978 93.7249032,29.7116839 93.2153653,29.5144861 C93.2153653,29.5144861 93.7249032,29.7116839 93.2153653,29.5144861 L93.2153653,29.5144861 L93.2153653,29.5144861 Z M81.3838293,8.8652976 C81.4729984,12.4558854 82.0975132,15.5658863 82.2748589,18.9657283 L82.1908182,19.8997708 C81.0575927,19.953537 80.1715262,19.8873632 79.0315178,20.118475 C80.2190058,19.0651543 81.1462655,17.6301765 81.5765604,16.0952763 L81.46787,15.9781488 C81.0112711,16.5100203 80.7725493,17.2602652 80.3463903,17.8419325 C79.500028,18.7255176 78.7271186,20.1163244 77.5488949,20.549597 C77.2512785,20.6591146 75.9302849,20.9373752 75.9302849,20.9373752 C76.6929374,19.156805 76.5352785,16.9370065 78.4556408,15.7338022 C79.8112101,14.5090915 81.1269097,13.0565776 81.2486694,11.138366 L81.1237665,11.0205767 C80.8155622,11.477341 80.7293709,12.0396525 80.4832045,12.5634177 C79.7452018,13.6986285 78.758882,14.9860388 77.5215982,15.6497616 C78.848382,11.7901774 80.0964189,7.87897782 81.5188238,4.05529298 C81.3057443,5.40441035 81.4291583,7.25115434 81.3838293,8.8652976 C81.3838293,8.8652976 81.4291583,7.25115434 81.3838293,8.8652976 L81.3838293,8.8652976 L81.3838293,8.8652976 Z M72.1415067,12.7157828 C72.3691445,12.5065083 74.0218339,11.1239732 74.3479051,10.8194085 C76.7260243,8.59795564 79.1198598,6.77668854 80.9821546,4.14793623 C79.4925835,7.61362107 78.2060003,11.2647579 76.909491,14.7537689 C76.6308995,12.7396054 76.9678894,8.9875536 76.9678894,8.9875536 C75.7858607,11.17228 76.1757896,14.0794584 76.0343432,16.5139908 C75.5668256,17.7565684 75.1782202,19.0504307 74.7907729,20.3121987 C73.9675714,18.3187144 73.0345215,16.1948678 73.0786925,13.8849076 C73.0867988,13.4554399 72.6202738,13.7939187 72.6081971,13.9509159 C72.3966066,16.6924945 73.7260372,19.1005573 73.9745197,21.7999501 C73.439174,22.2803715 72.7187073,22.5275305 72.1188422,23.0056359 C71.4556158,21.3321017 71.0901713,19.4760933 70.6911435,17.6511867 C70.3281805,17.8473919 71.3960594,21.6207847 71.6397443,23.2781063 C71.1093616,23.6294889 70.4211546,23.8779713 69.8113635,24.193951 C69.2222517,21.8447828 68.430979,19.2939501 68.8137942,16.8847292 C67.8752849,18.1901719 68.3975613,19.7450896 68.5830132,21.2386312 L69.1574014,24.3952847 L67.2747581,25.0343577 C66.5619014,23.8114667 66.5063154,22.3066756 65.9716315,21.0743549 C65.7398579,22.0672921 66.5739781,24.7653614 66.5748053,25.1691867 L64.9937489,25.5290065 C64.4567489,24.7814085 63.7500132,22.9771811 63.7500132,22.9771811 C63.4729106,23.8875665 63.9553173,24.7946433 64.3440881,25.6173484 C63.5428894,25.8615296 62.658808,26.1670869 61.7657933,26.2784242 C63.7208968,21.3031506 67.8201953,16.6865388 72.1415067,12.7157828 C72.1415067,12.7157828 67.8201953,16.6865388 72.1415067,12.7157828 L72.1415067,12.7157828 L72.1415067,12.7157828 Z M55.3919374,42.1449048 C55.6885613,40.2979954 56.2068672,38.5726802 56.7574328,36.8485231 C57.6363857,37.9486617 58.7227933,39.1210952 59.6508801,40.206841 L60.3739938,42.8519713 L57.9212637,39.8015268 C57.8263043,39.749415 57.7579799,39.8437126 57.690979,39.9057505 C58.5707591,41.4098799 59.8432803,42.7833161 60.7882415,44.273549 L61.3159772,46.9598725 C60.0628117,45.1764898 58.3015973,43.6539972 57.0765557,41.8414982 C56.7733145,41.3926747 56.5367433,41.7845887 56.6709106,42.0805508 C58.3247581,44.4704159 60.667309,46.5957514 61.9942581,49.086366 L60.6047748,49.0817338 C59.207516,47.5903429 58.0992711,46.1422957 56.8664541,44.5762939 C56.8179818,44.5744741 56.7218644,44.554622 56.702674,44.6346922 C57.5118136,46.2976386 58.9598607,47.7263299 60.0146703,49.3015961 L59.1195049,49.8976562 C57.7576491,48.7468946 56.7145853,47.2851165 55.6028663,45.9338484 C55.714369,47.6671044 57.4772378,48.8977708 58.5667886,50.4096756 L56.1792396,51.9990037 C54.8964615,51.1405647 55.1621491,46.0425388 55.3919374,42.1449048 C55.3919374,42.1449048 55.1621491,46.0425388 55.3919374,42.1449048 L55.3919374,42.1449048 L55.3919374,42.1449048 Z M72.4872646,40.8743688 C74.0061177,40.0275102 75.651528,39.250134 77.2337424,38.4378512 L78.8363053,37.5134039 C78.0896999,38.8744325 76.8638311,40.0880591 75.7311019,41.4021044 C73.5779735,42.3541793 71.4547886,43.3717662 69.3767674,44.4720702 L70.5384476,40.2829409 C72.2109892,38.3754824 74.4569263,37.1039538 76.637186,35.8622033 C78.2137757,34.775134 80.1367849,34.3474861 81.4543043,32.8466654 C80.6815604,34.4652754 80.27393,36.6796146 78.2139411,37.3119048 C76.2638006,38.4494316 74.2405382,39.3900915 72.3810557,40.6925564 C72.3612036,40.7888392 72.3898238,40.8867763 72.4872646,40.8743688 C72.4872646,40.8743688 72.3898238,40.8867763 72.4872646,40.8743688 L72.4872646,40.8743688 L72.4872646,40.8743688 Z M67.2287674,41.4816784 C67.6173727,39.7676128 68.2604162,38.1600869 69.1574014,36.6754787 C69.7602443,38.2335397 68.8113127,39.8131072 68.463735,41.3025129 C68.2604162,41.9733494 68.0569319,42.6443512 67.853613,43.3151876 L67.2287674,41.4816784 L67.2287674,41.4816784 L67.2287674,41.4816784 L67.2287674,41.4816784 Z M66.4816657,48.903561 L66.0048838,48.9970314 C66.5782794,47.096025 66.3759531,44.7776275 66.9475289,42.9250933 C68.1595012,45.0396756 66.7367655,46.8773207 66.4816657,48.903561 C66.4816657,48.903561 66.7367655,46.8773207 66.4816657,48.903561 L66.4816657,48.903561 L66.4816657,48.903561 Z M70.062162,45.144561 C71.4605788,44.0669214 72.9620613,43.2516608 74.5666093,42.6987791 C72.701833,44.5666987 70.8909883,46.7112246 68.9287711,48.5913863 L68.1823311,48.6760887 C68.491528,47.3468235 68.7883173,45.9199519 70.062162,45.144561 C70.062162,45.144561 68.7883173,45.9199519 70.062162,45.144561 L70.062162,45.144561 L70.062162,45.144561 Z M69.9643903,35.1567911 C70.2492683,34.7038318 71.0216814,33.54728 71.0216814,33.54728 C70.737796,34.6351765 70.3422424,35.686512 70.0260973,36.7732505 C69.4220964,36.2695028 69.6148274,35.7126506 69.9643903,35.1567911 C69.9643903,35.1567911 69.6148274,35.7126506 69.9643903,35.1567911 L69.9643903,35.1567911 L69.9643903,35.1567911 Z M67.4636842,38.2912763 C66.0808182,41.304829 65.7074328,44.3029963 65.4564689,47.6939048 C65.4323154,48.0196451 65.191443,49.1436063 65.191443,49.1436063 C64.4473191,49.1637893 63.749186,49.250146 62.9766075,49.1722264 C62.5028034,48.0393318 62.4228986,46.7434843 62.1297489,45.5366405 C61.2051361,42.3295296 60.1023506,39.1743651 58.8490197,36.086036 C58.7871472,35.9333401 58.4635576,35.9856174 58.4961482,36.2190453 C58.594747,36.9259464 58.9582064,37.6019113 59.0321555,38.2118678 C57.4785613,37.0053549 56.831382,35.3326479 57.0659679,33.4187375 C57.8580677,32.1400952 59.3603774,31.7288253 60.5794633,31.1129131 C64.4135705,29.7242569 68.6084901,29.4641941 72.7110973,30.3477791 C70.3784725,32.6178697 68.8472119,35.4841858 67.4636842,38.2912763 C67.4636842,38.2912763 68.8472119,35.4841858 67.4636842,38.2912763 L67.4636842,38.2912763 L67.4636842,38.2912763 Z M47.2403238,25.8372107 C47.0207923,23.9706146 47.16654,21.8432939 47.3999679,19.9618087 C47.9546694,21.9380878 47.8130576,23.9524168 47.2403238,25.8372107 C47.2403238,25.8372107 47.8130576,23.9524168 47.2403238,25.8372107 L47.2403238,25.8372107 L47.2403238,25.8372107 Z M35.9600151,28.4284094 C33.1648358,28.7965009 30.8821722,27.0771414 28.1667323,26.7434603 C25.6958043,26.4400536 22.6428783,27.9046442 22.3747091,32.5634418 C21.5801278,31.3698327 21.9655899,29.7363336 21.4166786,28.4550444 C20.8001047,27.2520055 19.8912082,26.0861895 20.1731084,24.6265619 C21.3683718,22.5232292 23.6057064,21.4775185 25.3073644,19.6519501 C28.6307757,14.7051312 33.9718247,11.9357597 39.212455,10.5199723 C41.4694762,10.2344325 43.6743857,10.8840933 45.058906,12.7142939 C45.6088099,13.5432856 46.1757535,14.356561 46.348467,15.3327893 C44.4558977,17.9266349 41.7697396,20.5709381 38.7244236,21.6181377 C37.7245382,21.1436719 36.7072822,20.7009695 35.5126805,20.6715222 C35.2173801,20.7894769 35.2200271,21.1451608 35.3088653,21.3585712 L36.144309,22.3275203 C33.8247535,23.2039917 31.2707775,21.9983059 29.043369,22.4036201 C28.8465021,22.4395194 28.8246648,22.7012366 29.0097859,22.7136442 C32.361321,22.9376423 35.8791177,23.5519002 38.9993755,22.0325508 C40.6138496,21.2217569 42.2438746,20.4275065 43.7129319,19.1908845 C45.6337905,17.5514298 46.6265622,15.2464325 48.727248,13.9692791 C50.2424615,18.067585 45.4106195,19.9235933 43.3041435,22.7996701 C43.0687304,23.1209436 42.2741491,24.4480582 42.0336075,24.7645342 C40.5453598,26.7236081 38.5174652,28.4841608 35.9600151,28.4284094 C35.9600151,28.4284094 38.5174652,28.4841608 35.9600151,28.4284094 L35.9600151,28.4284094 L35.9600151,28.4284094 Z M37.9066814,21.8778697 C37.6585299,22.0803614 37.2512304,22.2398401 36.8867785,22.1688688 C36.8346666,22.1587773 35.9330493,21.511598 35.7207969,21.1481386 C36.4902323,21.3066248 37.1729799,21.623597 37.9066814,21.8778697 C37.9066814,21.8778697 37.1729799,21.623597 37.9066814,21.8778697 L37.9066814,21.8778697 L37.9066814,21.8778697 Z M44.2357045,32.5897458 C42.7279356,31.0295342 41.3832849,29.0069335 39.5317433,27.9828946 L41.1038663,26.5887791 C43.0753478,24.4664214 44.4497766,21.9011959 46.812345,20.1171516 C46.0640853,24.9036645 47.1706759,29.3569926 48.8119504,33.3461118 C48.8779587,34.1565749 49.309577,35.1263512 48.7631472,35.8972754 C47.0803487,37.061768 45.6551315,34.3000065 44.2357045,32.5897458 C44.2357045,32.5897458 45.6551315,34.3000065 44.2357045,32.5897458 L44.2357045,32.5897458 L44.2357045,32.5897458 Z M47.788077,37.3142209 C48.1454152,37.2632671 48.70326,37.0422468 49.0872332,36.7174991 C50.3253441,41.1112708 52.3992295,45.1976654 53.9488533,49.4741442 C50.6259384,45.9379843 49.9456722,41.3230268 47.788077,37.3142209 C47.788077,37.3142209 49.9456722,41.3230268 47.788077,37.3142209 L47.788077,37.3142209 L47.788077,37.3142209 Z M57.5225668,88.3576756 C57.6502822,87.974695 57.5950271,87.730183 57.6271213,87.3113031 L58.4084679,88.5631451 C58.2453496,88.6054963 57.7305178,88.4140887 57.5225668,88.3576756 C57.5225668,88.3576756 57.7305178,88.4140887 57.5225668,88.3576756 L57.5225668,88.3576756 L57.5225668,88.3576756 Z M59.4584799,83.3579177 L59.3476389,86.2621183 C57.6132249,84.2893133 58.8645705,81.1376229 58.8885585,78.8119464 C59.5526121,74.5391072 60.5845918,70.3612274 61.2299513,66.1524113 L62.0103053,65.6005222 C61.1545132,71.5141396 59.7054735,77.3079824 59.4584799,83.3579177 C59.4584799,83.3579177 59.7054735,77.3079824 59.4584799,83.3579177 L59.4584799,83.3579177 L59.4584799,83.3579177 Z M57.0879707,69.2582763 C57.3895576,68.9790231 57.6792332,68.5861165 58.1197849,68.4736211 C58.2274827,71.3133022 58.8837609,74.2037717 58.674321,77.0598309 C58.641565,77.5053457 58.4025123,78.9722523 58.2226851,80.3341081 C58.090503,81.3363096 58.0119217,81.1902311 57.9801583,80.3878743 C57.8990955,78.3361571 57.7268783,76.151927 57.5516833,74.0426386 C57.3073367,72.4013641 57.3323173,70.8995508 57.0879707,69.2582763 C57.0879707,69.2582763 57.3323173,70.8995508 57.0879707,69.2582763 L57.0879707,69.2582763 L57.0879707,69.2582763 Z M57.4145382,82.2941747 C56.4613053,79.753268 55.2119448,77.3465287 54.7340049,74.6299307 C54.3207498,72.7560555 55.3229513,71.0491035 56.5519633,69.7549104 C57.1637396,73.6239242 57.593869,78.0191848 57.4145382,82.2941747 C57.4145382,82.2941747 57.593869,78.0191848 57.4145382,82.2941747 L57.4145382,82.2941747 L57.4145382,82.2941747 Z M59.970003,69.9499575 L59.1100751,74.2798715 C59.172113,72.2301396 58.6334587,70.2545222 58.5341981,68.1986691 L58.8859116,67.8727634 L59.970003,69.9499575 L59.970003,69.9499575 L59.970003,69.9499575 L59.970003,69.9499575 Z M59.3190188,67.5337884 L60.5642433,66.6602948 L60.1279929,69.1965693 C59.709113,68.7442717 59.5233302,68.1070185 59.3190188,67.5337884 C59.3190188,67.5337884 59.5233302,68.1070185 59.3190188,67.5337884 L59.3190188,67.5337884 L59.3190188,67.5337884 Z M63.4603376,80.9576303 C63.0333515,83.2518743 62.9782618,85.5442985 62.7289522,87.8453253 C62.6533487,88.5533845 61.8566167,88.6845739 61.3472443,88.9075795 C61.9436352,85.1331941 61.4782683,81.2373799 60.4980696,77.7098226 C60.7139615,75.8599353 61.0162101,73.8679399 61.4072969,72.0891895 C62.7087692,74.8211728 64.5211029,77.7179288 63.4603376,80.9576303 C63.4603376,80.9576303 64.5211029,77.7179288 63.4603376,80.9576303 L63.4603376,80.9576303 L63.4603376,80.9576303 Z M64.317784,76.6922357 C63.6967433,74.7619473 62.3061019,73.0930453 61.5050687,71.2204935 L61.8638958,69.440585 C62.6659217,70.4406359 63.6021149,71.7366488 64.1672387,73.0185998 L64.2155456,73.0204196 C64.1480483,71.4021405 62.8569984,70.0923965 62.0056731,68.6865351 C62.0470317,68.0256248 62.2306639,67.4509057 62.3669818,66.8421072 C63.4088875,68.756183 65.2213866,70.3766128 65.4596121,72.5993891 C65.2435548,74.0292384 64.8046574,75.3697532 64.317784,76.6922357 C64.317784,76.6922357 64.8046574,75.3697532 64.317784,76.6922357 L64.317784,76.6922357 L64.317784,76.6922357 Z M66.2088644,71.1736756 C65.2878912,69.0541303 62.6409411,67.7089834 62.6042147,65.2838808 L63.2512286,64.8400203 C64.1396112,66.1180009 65.1558746,67.4333697 66.009516,68.7747116 L66.1225077,68.7790129 L66.1335918,68.4885102 C65.4574615,67.153951 64.6335982,65.8782865 63.7283413,64.6158567 C64.2299384,63.9397264 64.6422008,64.0391525 65.0334531,64.3837523 C65.5059337,64.7999852 67.3606186,67.2427893 67.5545077,68.090475 C67.0479476,69.089037 66.7789513,70.2098549 66.2088644,71.1736756 C66.2088644,71.1736756 66.7789513,70.2098549 66.2088644,71.1736756 L66.2088644,71.1736756 L66.2088644,71.1736756 Z M67.991089,67.2345176 C67.6785835,65.6875407 66.1071223,64.9488762 65.1492572,63.7974529 C65.4998127,63.5038068 65.9929725,63.280305 66.4664457,63.1529205 C66.9326398,63.6392976 67.3032128,64.0897754 67.6856971,64.6537412 C67.9722295,64.3414011 67.5966934,64.0201275 67.4787387,63.7248272 L66.8181592,62.8270148 L67.8269781,62.2192089 C68.421053,62.7428087 68.9282748,63.4245638 69.3393792,64.0866322 L67.991089,67.2345176 L67.991089,67.2345176 L67.991089,67.2345176 L67.991089,67.2345176 Z M69.5210262,63.5603854 C69.2526916,62.9684612 68.6885604,62.5105388 68.3705955,61.9490545 L70.8046315,60.4100185 C70.2816934,61.4080841 70.0444605,62.5462726 69.5210262,63.5603854 C69.5210262,63.5603854 70.0444605,62.5462726 69.5210262,63.5603854 L69.5210262,63.5603854 L69.5210262,63.5603854 Z M68.6273496,61.1509991 C63.8120511,64.1180647 58.3040788,66.6063632 54.7497212,71.253415 C53.4985409,73.3071174 54.0977443,75.3603235 54.9282249,77.3906996 C55.4708496,78.7171525 58.7661371,86.2561627 59.963882,88.7416488 C59.5046361,88.497964 59.0771537,88.6916876 58.6892101,88.2729732 C57.7459032,85.8940268 54.8613894,79.9431867 54.5387923,79.2711922 C51.8051546,73.5747902 48.1126592,68.1549945 44.187894,63.0622625 C42.5557184,61.3005518 41.0737572,59.2883734 39.3853339,57.5324529 C38.7138358,56.8339889 36.1487757,54.622793 35.5866297,54.1584187 C32.1037396,51.2806876 28.327369,48.922586 24.1838995,47.401086 C18.3518413,44.5433725 10.0513367,45.0271026 2.26665647,50.1195037 C5.97801137,45.1713614 11.0672692,41.7945148 16.7636713,40.7193567 C19.8496842,40.3037856 22.93487,39.9045924 26.107736,39.7509039 C30.8619892,40.0778022 35.9343727,40.1097311 40.5269966,40.010305 C43.8452794,40.2822791 46.8318663,42.0444861 48.8390816,44.916427 C51.4681648,48.4261174 54.1283496,51.9692255 57.5937036,54.7352884 C58.4769578,55.302232 59.5883459,55.3930555 60.597992,55.1892403 C61.881101,54.5918567 62.5595474,53.3251257 63.2183071,52.154512 C63.7058422,51.6560582 64.4486426,51.6683004 65.0313025,51.6419963 C67.1973348,52.4680102 68.262236,54.6252745 70.3569661,55.6263179 C71.6552951,56.3221349 72.7842193,56.3813604 74.2767683,56.6483715 C72.3205067,57.9471969 70.7052055,60.050695 68.6273496,61.1509991 C68.6273496,61.1509991 70.7052055,60.050695 68.6273496,61.1509991 L68.6273496,61.1509991 L68.6273496,61.1509991 Z M74.9323847,55.9786932 C73.2977276,55.6253253 71.5955733,55.3503734 70.2262729,54.3933355 C68.2872165,52.7034233 66.4719051,50.3074372 63.6150188,50.6508789 C61.249638,51.2391636 61.8298164,55.5110102 58.777552,54.1987847 C58.1153182,53.7694824 57.5038727,53.277646 56.9111213,52.7217865 C58.7848311,51.4682902 60.3460354,49.0880203 62.945175,49.995097 C65.2824319,50.5689889 67.5543422,49.0398789 70.1285012,49.332036 C73.0193016,50.2179372 74.4201999,53.3090786 74.9323847,55.9786932 C74.9323847,55.9786932 74.4201999,53.3090786 74.9323847,55.9786932 L74.9323847,55.9786932 L74.9323847,55.9786932 Z M81.0003524,36.2847227 C80.8390539,36.7476081 79.9099744,38.9571497 79.6328718,39.6041636 C79.1393811,40.7562486 78.6695474,41.9131312 77.9990419,42.9429603 C77.5670927,42.8294723 76.9341408,42.9022634 76.5597628,42.5487301 C76.3607452,42.686537 77.6795881,43.6902274 77.6795881,43.6902274 C77.4706445,44.0861118 77.2641823,44.8376802 76.8770659,44.8229566 C76.0436075,44.6456109 75.817955,43.78072 75.0726731,43.4129593 C74.8746482,43.5185065 76.0201158,45.2587107 76.7859116,45.5143068 C76.441808,46.0666922 76.4469365,46.7777292 76.0232591,47.2948771 C75.3727711,46.9792283 74.7861408,46.2620702 74.4074615,45.6011599 C74.2491408,45.5143068 74.2416962,45.7080305 74.1586482,45.7694067 C74.4996084,46.5742449 74.9371823,47.3827227 75.7062868,47.9774593 C75.5408524,48.5045333 75.2865798,49.2380693 74.9416491,49.8065018 C73.7983321,48.8580665 73.2805225,47.6103604 72.6799957,46.4078179 C72.5850363,46.3557061 72.5162156,46.4662163 72.4498764,46.512207 C72.6346666,48.0219612 73.8196731,49.1497274 74.626662,50.4409427 C74.5460955,50.8578373 74.275114,51.1868863 74.1144772,51.584756 C72.9233496,50.6182884 71.8819402,48.2677967 69.8044152,48.5118124 C74.0555825,43.8103327 79.2675927,39.339634 81.7115548,33.728927 C81.9070982,32.9537015 82.1387064,32.2530869 82.2879282,31.5453586 C82.4436019,30.807025 82.0980095,30.6912209 81.8988265,31.2350037 C81.5340437,32.2315804 80.7687443,33.0743031 79.7455326,33.5893004 C76.9212369,35.1943447 73.9796482,36.4878762 71.1993579,38.2075665 C71.6648903,36.5934233 72.1304226,34.97928 72.5954587,33.3811839 C73.5377729,32.3991654 74.5087073,31.5152495 75.6688986,30.7516044 C78.2354476,30.8171165 80.6944642,29.893 82.671736,28.4657976 C82.7627249,31.4386534 81.8664014,33.7997329 81.0003524,36.2847227 C81.0003524,36.2847227 81.8664014,33.7997329 81.0003524,36.2847227 L81.0003524,36.2847227 L81.0003524,36.2847227 Z M73.0720751,31.4765379 C73.1420539,30.839781 73.5038589,30.589975 74.3942267,30.7029667 L73.0720751,31.4765379 L73.0720751,31.4765379 L73.0720751,31.4765379 L73.0720751,31.4765379 Z M81.7328958,28.1536229 C81.2044984,28.5346183 78.9532674,29.3417726 78.4695372,29.429122 C74.1576555,30.2084834 69.7916768,28.2399797 65.4968348,28.8606895 C63.1175576,28.9637551 57.7022286,31.9887227 57.7022286,31.9887227 C60.1571093,29.9011063 63.0690853,28.541732 66.1779282,27.9494769 C69.0420936,27.4124769 71.9904652,27.6381294 74.7684393,26.8230342 C75.7137313,26.5077163 76.6846657,25.9933808 77.369564,25.234037 C77.5976981,24.9809224 77.4266389,24.7855444 77.1864282,24.9898558 C75.8134883,26.1574917 74.2013302,26.7560333 72.3297711,26.7945795 C69.9561186,27.172597 67.0214781,27.0121257 64.6698284,27.6657569 C61.8986371,28.303341 59.3087618,29.6910046 57.074736,31.4962246 C56.6601574,31.3511386 56.2609642,30.8027237 55.9524291,30.4192468 C56.0786555,29.2284501 59.0672276,27.9764427 59.4889199,27.8232505 C63.5551315,26.3460869 68.2341121,26.5366673 71.9037775,23.9830222 C76.2072221,21.3034815 82.2818071,19.2084205 87.0527692,22.0565388 C84.9694541,23.8113013 83.9158025,26.5795148 81.7328958,28.1536229 C81.7328958,28.1536229 83.9158025,26.5795148 81.7328958,28.1536229 L81.7328958,28.1536229 L81.7328958,28.1536229 Z M91.5782267,25.9430887 C91.0453626,24.4272135 89.7617572,23.0527847 88.1922812,22.6817153 C87.5808358,22.3915434 90.4579051,22.1953383 91.1184846,23.4882079 C91.4893884,24.2121488 91.65565,25.014671 91.7228164,25.8477985 C91.7428339,26.0959501 91.6543265,26.1596423 91.5782267,25.9430887 Z M73.2294032,34.9726627 L73.2922683,35.0236165 C75.533077,33.04072 79.9706888,32.2190074 80.4569005,30.1909473 C78.0670354,31.8447948 75.3027923,32.7250712 73.2294032,34.9726627 Z M76.8457988,19.8089473 C78.1666269,18.6474325 79.7081445,17.3750767 80.5088469,15.8706165 L80.1336417,15.7978253 C79.3633792,17.3519159 77.4883459,18.217634 76.8457988,19.8089473 Z M75.1783857,17.773939 C75.125943,16.6086192 75.1848376,12.102683 74.7234411,11.0672292 C74.3768561,12.1041719 74.472808,13.4005157 74.4774402,14.5479686 C74.580175,15.6668013 74.7796888,16.7892736 75.1783857,17.773939 Z M64.4150594,61.8628632 C61.2039781,63.725158 57.8347415,65.8122782 55.1389883,68.5167994 C54.8939799,68.7624695 55.4167526,68.582146 55.4663829,68.5442616 C58.564638,66.1888068 61.7537165,63.5731238 65.1758921,61.8271294 C67.0836814,60.5264843 68.0723173,58.7545166 68.6184162,56.7233133 L68.4595992,56.6526728 C67.7837997,58.6951257 66.1969531,60.4765231 64.4150594,61.8628632 Z M59.3840345,62.2579205 L59.6245761,62.4878743 C61.3637877,61.6997449 61.9477711,60.8288983 62.7107544,59.3130231 C63.6199818,57.5071414 64.0727757,55.4921506 64.2615363,53.4447348 L63.9763274,53.4599547 C63.0452628,56.6884067 62.5115714,60.3251506 59.3840345,62.2579205 Z M61.2297859,55.5689122 L61.100747,55.5639492 C58.7241167,60.2559991 54.4279513,64.0184732 52.1600114,68.8278161 C51.8104485,69.9456562 52.5299226,70.991036 52.9800696,71.8969547 L53.0980243,71.7722172 C52.0455308,69.5592015 53.3526278,67.6239501 54.6398727,65.8059917 C54.9990308,65.2987699 56.6735576,62.8286691 57.2175058,62.1048937 C58.7760631,60.0308429 60.4305724,57.9936839 61.2297859,55.5689122 Z M52.1224578,65.5786848 C53.526003,63.0953494 56.2019042,61.2365287 56.9549615,58.4377098 L56.6378238,58.1888965 C56.0027212,59.1664482 55.4625779,60.1961118 54.7316888,61.1377643 C53.8510816,62.6230342 52.1722535,63.8515499 52.1224578,65.5786848 Z M50.3486703,64.6385213 C50.5377618,64.1081386 50.8378598,63.6331765 51.1503653,63.163012 C51.4956269,62.6437135 52.5367055,60.7929991 52.7699679,60.4005887 C54.1743404,58.0383512 55.7567202,55.4028161 54.5852794,52.6976331 L54.5182785,52.759671 C55.0880345,57.3058078 51.6028284,60.5660231 49.8434337,64.3283318 C49.2109781,66.0816054 50.0702443,67.6978993 50.987247,69.0739824 C51.1144661,69.1272523 51.1994994,69.0174039 51.2335788,68.9702551 C50.4413136,67.7119612 49.870565,66.1552237 50.3486703,64.6385213 Z M52.0162489,53.1166784 C51.2980982,56.6925425 47.7827831,59.0468392 48.0203469,62.9821922 C48.1890899,62.7947551 48.2026555,62.4398983 48.2938099,62.168586 C48.5088746,59.0744667 51.3766796,57.2007569 52.0844079,54.3193863 C52.1643127,53.9183734 52.0344467,53.4890712 52.0162489,53.1166784 Z M46.105113,59.8228919 C47.9715437,56.024353 49.8768515,51.2088891 48.8007008,46.8230582 C48.6951537,46.3927634 48.5424578,46.4562902 48.5960585,46.9178521 C48.8543016,49.1437717 48.7826685,51.4558826 48.1490548,53.6799824 C47.6031213,56.1313891 45.8028644,58.0017902 45.4468496,60.5572551 C45.4708376,61.1428928 45.7312313,61.6841941 46.075004,62.1722255 C46.3296075,62.5340305 46.412821,62.4008558 46.2455668,61.9627856 C45.9955955,61.3078309 45.9017942,60.580085 46.105113,59.8228919 Z M44.3477036,42.7813309 L43.9726639,42.8724852 C44.3607729,44.089586 44.9060446,45.2737652 45.0552665,46.5785462 C45.0724716,46.7290915 45.1356676,48.0467763 45.1138302,48.3693734 C44.9497193,50.8098614 43.845114,53.0895471 43.7822489,55.4847061 C43.8846528,55.7632976 43.7887008,56.1636488 43.9748145,56.3646516 C43.9804393,54.1026673 44.9237461,52.2481479 45.263052,50.1282717 C45.9406713,47.6173087 45.5274162,44.8945896 44.3477036,42.7813309 Z M41.4294411,52.7773725 C41.9709079,49.0885166 41.2750908,45.3250499 39.2864042,42.2985933 C39.1093894,42.0292662 38.9388265,42.1313392 39.094004,42.4147283 C39.5909689,43.322963 40.0344984,44.036647 40.3928293,44.9844205 C41.6233302,48.2385148 41.2724439,51.6962588 40.815845,55.3068641 C41.0780585,56.4802902 41.9917526,57.0968641 42.6796287,58.1248734 L42.9216592,58.1341377 C42.8123071,57.612854 42.3113718,57.1898383 42.101601,56.7616941 C40.9953413,55.685378 41.4949531,54.024086 41.4294411,52.7773725 Z M35.769931,42.9159945 L35.5264116,43.1803586 C37.6778857,45.653768 36.9263173,49.2607338 38.6205308,51.8621895 L38.8979642,51.6333937 C37.6510853,48.742097 38.3477295,45.2279399 35.769931,42.9159945 Z M35.0158811,50.2058604 C34.1266713,47.3234972 33.8262424,43.8030536 31.4156981,41.7898826 C31.2143644,41.6218013 31.039004,41.7299954 31.1956703,41.9104843 C33.2477184,44.2740453 33.8305437,47.2632791 34.4995604,50.1861738 C35.0281232,51.579793 36.4872544,52.2979436 37.5877239,53.0993078 C36.9158949,52.0719603 35.6342748,51.360427 35.0158811,50.2058604 Z M29.7527517,43.3155185 C30.5213598,44.346671 30.4373191,45.7007514 31.0259347,46.7896405 C31.2942692,47.3815647 31.5736879,48.1031895 32.1757036,48.4170185 L32.5065724,48.1687015 C31.3551491,46.5897957 31.3349661,44.620134 29.7527517,43.3155185 Z M28.2719485,46.9754233 C27.7883838,45.1189187 26.7779106,43.2687006 25.2201805,41.9589566 C25.0522646,41.817841 24.2322064,41.052707 24.0776907,41.2892782 C26.0794467,42.6097754 26.9990964,44.7615804 27.7599291,46.8427449 C28.212723,48.1041821 29.6046879,48.0441294 30.4823173,48.7563244 L30.7726546,48.7674085 C30.0042119,48.1564593 28.9647877,47.8743937 28.2719485,46.9754233 Z M18.0136934,41.413354 L18.0069106,41.5908651 C21.0279079,42.0292662 21.9540095,46.5565434 25.2261361,46.3421405 C24.5495095,45.8638697 23.660796,45.8622153 23.0531555,45.2734344 C21.7080086,43.6872495 20.0988284,41.8160213 18.0136934,41.413354 Z M19.7123737,44.3220213 C18.4003136,43.1408198 16.7510982,42.3184455 14.9081592,42.3450804 C15.3344836,42.6036543 18.6418478,44.0063725 19.7123737,44.3220213 Z M8.35265647,44.7610841 L8.41469436,44.828085 C10.4884143,43.9358974 15.3354762,44.3951433 18.5192609,45.1005555 C16.7774023,44.2452597 12.2689846,42.755854 8.35265647,44.7610841 Z M8.35265647,44.7610841" id="Fill-1" fill="#000000" sketch:type="MSShapeGroup"></path>
    </g>
</svg>